<svg xmlns="http://www.w3.org/2000/svg" version="1.1" xmlns:xlink="http://www.w3.org/1999/xlink" xmlns:svgjs="http://svgjs.dev/svgjs" width="2000" height="1500" viewBox="0 0 2000 1500"><rect width="2000" height="1500" fill="#040046"></rect><g transform="matrix(0.286368843069874,0,0,0.286368843069874,712.1168767246083,248.38709677419342)"><svg viewBox="0 0 142 248" data-background-color="#040046" preserveAspectRatio="xMidYMid meet" height="3492" width="2000" xmlns="http://www.w3.org/2000/svg" xmlns:xlink="http://www.w3.org/1999/xlink"><g id="tight-bounds" transform="matrix(1,0,0,1,0.3754385199143826,0.4000000000000057)"><svg viewBox="0 0 141.24912296017126 247.2" height="247.2" width="141.24912296017126"><g><svg viewBox="0 0 141.2491229601713 247.20000000000002" height="247.2" width="141.24912296017126"><g><svg viewBox="0 0 56.6389721627409 247.20000000000002" height="247.20000000000002" width="56.6389721627409"><g id="textblocktransform"><svg viewBox="0 0 56.6389721627409 247.20000000000002" height="247.20000000000002" width="56.6389721627409" id="textblock"><g><svg viewBox="0 0 56.6389721627409 247.20000000000002" height="247.20000000000002" width="56.6389721627409"><g transform="matrix(1,0,0,1,0,0)"><svg width="56.6389721627409" viewBox="3.34 -35.55 10.45 45.61" height="247.20000000000002" data-palette-color="url(#c523643a-6f02-49e0-9f76-9b488988504f)"></svg></g></svg></g></svg></g></svg></g><g transform="matrix(1,0,0,1,114.99695936274091,110.48005470674671)"><svg viewBox="0 0 26.252163597430407 26.239890586506583" height="26.239890586506583" width="26.252163597430407"><g><svg xmlns="http://www.w3.org/2000/svg" xmlns:xlink="http://www.w3.org/1999/xlink" version="1.1" x="0" y="0" viewBox="0.7607695154586737 0.7749999999999999 30.439230484541326 30.425" enable-background="new 0 0 32 32" xml:space="preserve" height="26.239890586506583" width="26.252163597430407" class="icon-icon-0" data-fill-palette-color="accent" id="icon-0"></svg></g></svg></g></svg></g><defs></defs><mask id="fcff17d4-8df0-4cab-9ac2-97cd6c91fe0f"><g id="SvgjsG4915"><svg viewBox="0 0 141.24912296017126 247.2" height="247.2" width="141.24912296017126"><g><svg viewBox="0 0 141.2491229601713 247.20000000000002" height="247.2" width="141.24912296017126"><g><svg viewBox="0 0 56.6389721627409 247.20000000000002" height="247.20000000000002" width="56.6389721627409"><g id="SvgjsG4914"><svg viewBox="0 0 56.6389721627409 247.20000000000002" height="247.20000000000002" width="56.6389721627409" id="SvgjsSvg4913"><g><svg viewBox="0 0 56.6389721627409 247.20000000000002" height="247.20000000000002" width="56.6389721627409"><g transform="matrix(1,0,0,1,0,0)"><svg width="56.6389721627409" viewBox="3.34 -35.55 10.45 45.61" height="247.20000000000002" data-palette-color="url(#c523643a-6f02-49e0-9f76-9b488988504f)"><path d="M6.98 9.28L4.81 10.06 3.34 6.49 6.35 5.22Q7.3 4.83 7.85 4.44 8.4 4.05 8.64 3.47 8.89 2.88 8.96 1.88 9.03 0.88 9.03-0.73L9.03-0.73 9.03-35.55 13.79-35.55 13.79-0.71Q13.79 1.78 13.53 3.38 13.26 4.98 12.52 6.01 11.79 7.03 10.45 7.76 9.11 8.5 6.98 9.28L6.98 9.28Z" opacity="1" transform="matrix(1,0,0,1,0,0)" fill="white" class="wordmark-text-0" id="SvgjsPath4912"></path></svg></g></svg></g></svg></g></svg></g><g transform="matrix(1,0,0,1,114.99695936274091,110.48005470674671)"><svg viewBox="0 0 26.252163597430407 26.239890586506583" height="26.239890586506583" width="26.252163597430407"><g><svg xmlns="http://www.w3.org/2000/svg" xmlns:xlink="http://www.w3.org/1999/xlink" version="1.1" x="0" y="0" viewBox="0.7607695154586737 0.7749999999999999 30.439230484541326 30.425" enable-background="new 0 0 32 32" xml:space="preserve" height="26.239890586506583" width="26.252163597430407" class="icon-icon-0" data-fill-palette-color="accent" id="SvgjsSvg4911"><g fill="black"><g fill="black"><path fill="black" d="M1.5 31.2C1.3 31.2 1.1 31.1 1 31 0.8 30.8 0.7 30.6 0.8 30.3L4.5 11.2C4.6 10.9 4.8 10.6 5.1 10.6L14.7 9.3C14.9 9.3 15.2 9.3 15.3 9.5L22.5 16.7C22.7 16.9 22.7 17.1 22.7 17.3L21.4 26.9C21.4 27.2 21.1 27.5 20.8 27.5L1.6 31.2zM5.8 12.1L2.4 29.6 19.9 26.2 21.1 17.5 14.4 10.8z"></path></g><g fill="black"><rect x="5.2" y="19.8" transform="matrix(-0.7071 -0.7071 0.7071 -0.7071 -8.3465 48.7211)" fill="black" width="1.5" height="12.6"></rect></g><g fill="black"><path fill="black" d="M12 23.1C11.2 23.1 10.4 22.8 9.8 22.2S8.9 20.9 8.9 20C8.9 19.2 9.2 18.4 9.8 17.8 11 16.6 13 16.6 14.1 17.8 15.3 19 15.3 20.9 14.1 22.1 13.6 22.8 12.8 23.1 12 23.1M12 18.4C11.6 18.4 11.2 18.6 10.9 18.9S10.4 19.6 10.4 20 10.6 20.8 10.9 21.1C11.5 21.7 12.5 21.7 13.1 21.1S13.7 19.5 13.1 18.9C12.8 18.6 12.4 18.4 12 18.4"></path></g><g fill="black"><path fill="black" d="M23.8 18.7C22.9 18.7 22 18.3 21.4 17.7L14.3 10.6C13 9.3 13 7.1 14.3 5.8L19.1 1C19.4 0.7 19.9 0.7 20.2 1L31 11.8C31.1 11.9 31.2 12.1 31.2 12.3S31.1 12.7 31 12.8L26.1 17.7C25.5 18.4 24.7 18.7 23.8 18.7M19.7 2.6L15.4 6.9C14.7 7.6 14.7 8.9 15.4 9.6L22.5 16.7C23.2 17.4 24.5 17.4 25.2 16.7L29.5 12.4z"></path></g></g></svg></g></svg></g></svg></g><defs><mask></mask></defs></svg><rect width="141.24912296017126" height="247.2" fill="black" stroke="none" visibility="hidden"></rect></g></mask><linearGradient x1="0" x2="1" y1="0.578" y2="0.595" id="c523643a-6f02-49e0-9f76-9b488988504f"><stop stop-color="#6ee2f5" offset="0"></stop><stop stop-color="#6454f0" offset="1"></stop></linearGradient><rect width="141.24912296017126" height="247.2" fill="url(#c523643a-6f02-49e0-9f76-9b488988504f)" mask="url(#fcff17d4-8df0-4cab-9ac2-97cd6c91fe0f)" data-fill-palette-color="primary"></rect><mask id="84f1bf7e-6147-4639-8024-f4d66ab21e04"><g id="SvgjsG4934"><svg viewBox="0 0 141.24912296017126 247.2" height="247.2" width="141.24912296017126"><g><svg viewBox="0 0 141.2491229601713 247.20000000000002" height="247.2" width="141.24912296017126"><g><svg viewBox="0 0 56.6389721627409 247.20000000000002" height="247.20000000000002" width="56.6389721627409"><g id="SvgjsG4933"><svg viewBox="0 0 56.6389721627409 247.20000000000002" height="247.20000000000002" width="56.6389721627409" id="SvgjsSvg4932"><g><svg viewBox="0 0 56.6389721627409 247.20000000000002" height="247.20000000000002" width="56.6389721627409"><g transform="matrix(1,0,0,1,0,0)"><svg width="56.6389721627409" viewBox="3.34 -35.55 10.45 45.61" height="247.20000000000002" data-palette-color="url(#c523643a-6f02-49e0-9f76-9b488988504f)"></svg></g></svg></g></svg></g></svg></g><g transform="matrix(1,0,0,1,114.99695936274091,110.48005470674671)"><svg viewBox="0 0 26.252163597430407 26.239890586506583" height="26.239890586506583" width="26.252163597430407"><g><svg xmlns="http://www.w3.org/2000/svg" xmlns:xlink="http://www.w3.org/1999/xlink" version="1.1" x="0" y="0" viewBox="0.7607695154586737 0.7749999999999999 30.439230484541326 30.425" enable-background="new 0 0 32 32" xml:space="preserve" height="26.239890586506583" width="26.252163597430407" class="icon-icon-0" data-fill-palette-color="accent" id="SvgjsSvg4931"><g fill="white"><g fill="white"><path fill="white" d="M1.5 31.2C1.3 31.2 1.1 31.1 1 31 0.8 30.8 0.7 30.6 0.8 30.3L4.5 11.2C4.6 10.9 4.8 10.6 5.1 10.6L14.7 9.3C14.9 9.3 15.2 9.3 15.3 9.5L22.5 16.7C22.7 16.9 22.7 17.1 22.7 17.3L21.4 26.9C21.4 27.2 21.1 27.5 20.8 27.5L1.6 31.2zM5.8 12.1L2.4 29.6 19.9 26.2 21.1 17.5 14.4 10.8z"></path></g><g fill="white"><rect x="5.2" y="19.8" transform="matrix(-0.7071 -0.7071 0.7071 -0.7071 -8.3465 48.7211)" fill="white" width="1.5" height="12.6"></rect></g><g fill="white"><path fill="white" d="M12 23.1C11.2 23.1 10.4 22.8 9.8 22.2S8.9 20.9 8.9 20C8.9 19.2 9.2 18.4 9.8 17.8 11 16.6 13 16.6 14.1 17.8 15.3 19 15.3 20.9 14.1 22.1 13.6 22.8 12.8 23.1 12 23.1M12 18.4C11.6 18.4 11.2 18.6 10.9 18.9S10.4 19.6 10.4 20 10.6 20.8 10.9 21.1C11.5 21.7 12.5 21.7 13.1 21.1S13.7 19.5 13.1 18.9C12.8 18.6 12.4 18.4 12 18.4"></path></g><g fill="white"><path fill="white" d="M23.8 18.7C22.9 18.7 22 18.3 21.4 17.7L14.3 10.6C13 9.3 13 7.1 14.3 5.8L19.1 1C19.4 0.7 19.9 0.7 20.2 1L31 11.8C31.1 11.9 31.2 12.1 31.2 12.3S31.1 12.7 31 12.8L26.1 17.7C25.5 18.4 24.7 18.7 23.8 18.7M19.7 2.6L15.4 6.9C14.7 7.6 14.7 8.9 15.4 9.6L22.5 16.7C23.2 17.4 24.5 17.4 25.2 16.7L29.5 12.4z"></path></g></g></svg></g></svg></g></svg></g><defs><mask></mask></defs><mask><g id="SvgjsG4930"><svg viewBox="0 0 141.24912296017126 247.2" height="247.2" width="141.24912296017126"><g><svg viewBox="0 0 141.2491229601713 247.20000000000002" height="247.2" width="141.24912296017126"><g><svg viewBox="0 0 56.6389721627409 247.20000000000002" height="247.20000000000002" width="56.6389721627409"><g id="SvgjsG4929"><svg viewBox="0 0 56.6389721627409 247.20000000000002" height="247.20000000000002" width="56.6389721627409" id="SvgjsSvg4928"><g><svg viewBox="0 0 56.6389721627409 247.20000000000002" height="247.20000000000002" width="56.6389721627409"><g transform="matrix(1,0,0,1,0,0)"><svg width="56.6389721627409" viewBox="3.34 -35.55 10.45 45.61" height="247.20000000000002" data-palette-color="url(#c523643a-6f02-49e0-9f76-9b488988504f)"><path d="M6.98 9.28L4.81 10.06 3.34 6.49 6.35 5.22Q7.3 4.83 7.85 4.44 8.4 4.05 8.64 3.47 8.89 2.88 8.96 1.88 9.03 0.88 9.03-0.73L9.03-0.73 9.03-35.55 13.79-35.55 13.79-0.71Q13.79 1.78 13.53 3.38 13.26 4.98 12.52 6.01 11.79 7.03 10.45 7.76 9.11 8.5 6.98 9.28L6.98 9.28Z" opacity="1" transform="matrix(1,0,0,1,0,0)" fill="black" class="wordmark-text-0" id="SvgjsPath4927"></path></svg></g></svg></g></svg></g></svg></g><g transform="matrix(1,0,0,1,114.99695936274091,110.48005470674671)"><svg viewBox="0 0 26.252163597430407 26.239890586506583" height="26.239890586506583" width="26.252163597430407"><g><svg xmlns="http://www.w3.org/2000/svg" xmlns:xlink="http://www.w3.org/1999/xlink" version="1.1" x="0" y="0" viewBox="0.7607695154586737 0.7749999999999999 30.439230484541326 30.425" enable-background="new 0 0 32 32" xml:space="preserve" height="26.239890586506583" width="26.252163597430407" class="icon-icon-0" data-fill-palette-color="accent" id="SvgjsSvg4926"><g fill="black"><g fill="black"><path fill="black" d="M1.5 31.2C1.3 31.2 1.1 31.1 1 31 0.8 30.8 0.7 30.6 0.8 30.3L4.5 11.2C4.6 10.9 4.8 10.6 5.1 10.6L14.7 9.3C14.9 9.3 15.2 9.3 15.3 9.5L22.5 16.7C22.7 16.9 22.7 17.1 22.7 17.3L21.4 26.9C21.4 27.2 21.1 27.5 20.8 27.5L1.6 31.2zM5.8 12.1L2.4 29.6 19.9 26.2 21.1 17.5 14.4 10.8z"></path></g><g fill="black"><rect x="5.2" y="19.8" transform="matrix(-0.7071 -0.7071 0.7071 -0.7071 -8.3465 48.7211)" fill="black" width="1.5" height="12.6"></rect></g><g fill="black"><path fill="black" d="M12 23.1C11.2 23.1 10.4 22.8 9.8 22.2S8.9 20.9 8.9 20C8.9 19.2 9.2 18.4 9.8 17.8 11 16.6 13 16.6 14.1 17.8 15.3 19 15.3 20.9 14.1 22.1 13.6 22.8 12.8 23.1 12 23.1M12 18.4C11.6 18.4 11.2 18.6 10.9 18.9S10.4 19.6 10.4 20 10.6 20.8 10.9 21.1C11.5 21.7 12.5 21.7 13.1 21.1S13.7 19.5 13.1 18.9C12.8 18.6 12.4 18.4 12 18.4"></path></g><g fill="black"><path fill="black" d="M23.8 18.7C22.9 18.7 22 18.3 21.4 17.7L14.3 10.6C13 9.3 13 7.1 14.3 5.8L19.1 1C19.4 0.7 19.9 0.7 20.2 1L31 11.8C31.1 11.9 31.2 12.1 31.2 12.3S31.1 12.7 31 12.8L26.1 17.7C25.5 18.4 24.7 18.7 23.8 18.7M19.7 2.6L15.4 6.9C14.7 7.6 14.7 8.9 15.4 9.6L22.5 16.7C23.2 17.4 24.5 17.4 25.2 16.7L29.5 12.4z"></path></g></g></svg></g></svg></g></svg></g><defs><mask></mask></defs></svg><rect width="141.24912296017126" height="247.2" fill="black" stroke="none" visibility="hidden"></rect></g></mask></svg><rect width="141.24912296017126" height="247.2" fill="black" stroke="none" visibility="hidden"></rect></g></mask><linearGradient x1="0" x2="1" y1="0.578" y2="0.595" id="9873db87-af6c-44b1-a191-8b5d03b82e36"><stop stop-color="#6ee2f5" offset="0"></stop><stop stop-color="#6454f0" offset="1"></stop></linearGradient><rect width="141.24912296017126" height="247.2" fill="url(#9873db87-af6c-44b1-a191-8b5d03b82e36)" mask="url(#84f1bf7e-6147-4639-8024-f4d66ab21e04)" data-fill-palette-color="accent"></rect></svg><rect width="141.24912296017126" height="247.2" fill="none" stroke="none" visibility="hidden"></rect></g></svg></g></svg>